<svg xmlns="http://www.w3.org/2000/svg" fill="none" viewBox="-0.415 -0.415 20 20" id="Pencil-1--Streamline-Ultimate" height="20" width="20">
  <desc>
    Pencil 1 Streamline Icon: https://streamlinehq.com
  </desc>
  <path fill="#ffbc44" d="m2.274919875 13.271550750000001 -1.1107257750000001 4.73355225 4.734327037500001 -1.1106618750000001 0.18523811250000002 -0.18451125000000002 -3.6228584250000004 -3.6236092500000003 -0.18598095 0.18523012500000002Z" stroke-width="0.83"></path>
  <path fill="#ffdda1" d="m4.272330037500001 14.897725875 -1.8114292125000002 -1.81140525 -0.18598095 0.18523012500000002 -1.1107257750000001 4.73355225 3.1081359375 -3.107377125Z" stroke-width="0.83"></path>
  <path stroke="#191919" stroke-linecap="round" stroke-linejoin="round" d="m2.274919875 13.271550750000001 -1.1107257750000001 4.73355225 4.734327037500001 -1.1106618750000001 0.18523811250000002 -0.18451125000000002 -3.6228584250000004 -3.6236092500000003 -0.18598095 0.18523012500000002Z" stroke-width="0.83"></path>
  <path fill="#ffef5e" d="m2.4609886875 13.086320625000003 3.6228664125 3.6236092500000003L16.01381925 6.7807245375l-3.6177783750000003 -3.6309178125000003L2.4609886875 13.086320625000003Z" stroke-width="0.83"></path>
  <path fill="#fff9bf" d="M12.404028375000001 3.1593118500000004 2.4535842750000003 13.076096625l1.8084978 1.8150795000000004L14.21247825 4.973672475000001l-1.8084498750000002 -1.8143606250000002Z" stroke-width="0.83"></path>
  <path stroke="#191919" stroke-linecap="round" stroke-linejoin="round" d="m2.4609886875 13.086320625000003 3.6228664125 3.6236092500000003L16.01381925 6.7807245375l-3.6177783750000003 -3.6309178125000003L2.4609886875 13.086320625000003Z" stroke-width="0.83"></path>
  <path fill="#e4f1f5" stroke="#191919" stroke-linecap="round" stroke-linejoin="round" d="M13.434815250000002 2.1108087 12.395801250000002 3.1497827625l3.6177783750000003 3.6309178125000003 1.0462826250000001 -1.0462986 -3.6250470000000004 -3.623593275Z" stroke-width="0.83"></path>
  <path fill="#ff808c" d="M17.576094375 5.2182337500000004c0.136107 -0.13593926250000002 0.244098 -0.29738261250000003 0.317822625 -0.47508851250000006 0.07364475000000001 -0.1777138875 0.111585375 -0.368207775 0.111585375 -0.5605947000000001 0 -0.1923789375 -0.037940625000000006 -0.382872825 -0.111585375 -0.5605867125 -0.073724625 -0.17770590000000003 -0.18171562500000002 -0.33914925 -0.317822625 -0.47508851250000006L16.022365875000002 1.593905625c-0.13594725 -0.1361309625 -0.29737462500000006 -0.24412196250000004 -0.47509650000000003 -0.31780665 -0.17772187500000003 -0.07368468750000001 -0.368143875 -0.1116093375 -0.56056275 -0.1116093375s-0.382840875 0.037924650000000004 -0.56056275 0.1116093375c-0.17772187500000003 0.07368468750000001 -0.33914925 0.18167568750000002 -0.47509650000000003 0.31780665l-0.516232125 0.5169270375 3.6250470000000004 3.623593275 0.516232125 -0.5161921875000001Z" stroke-width="0.83"></path>
  <path fill="#ffbfc5" d="m16.799230125 2.3700270375000003 -0.77686425 -0.7761214125000001c-0.13594725 -0.1361309625 -0.29737462500000006 -0.24412196250000004 -0.47509650000000003 -0.31780665 -0.17772187500000003 -0.07368468750000001 -0.368143875 -0.1116093375 -0.56056275 -0.1116093375s-0.382840875 0.037924650000000004 -0.56056275 0.1116093375c-0.17772187500000003 0.07368468750000001 -0.33914925 0.18167568750000002 -0.47509650000000003 0.31780665l-0.516232125 0.5169270375 1.8122040000000004 1.8121640625 1.552210875 -1.5529696875Z" stroke-width="0.83"></path>
  <path stroke="#191919" stroke-linecap="round" stroke-linejoin="round" d="M17.576094375 5.2182337500000004c0.136107 -0.13593926250000002 0.244098 -0.29738261250000003 0.317822625 -0.47508851250000006 0.07364475000000001 -0.1777138875 0.111585375 -0.368207775 0.111585375 -0.5605947000000001 0 -0.1923789375 -0.037940625000000006 -0.382872825 -0.111585375 -0.5605867125 -0.073724625 -0.17770590000000003 -0.18171562500000002 -0.33914925 -0.317822625 -0.47508851250000006L16.022365875000002 1.593905625c-0.13594725 -0.1361309625 -0.29737462500000006 -0.24412196250000004 -0.47509650000000003 -0.31780665 -0.17772187500000003 -0.07368468750000001 -0.368143875 -0.1116093375 -0.56056275 -0.1116093375s-0.382840875 0.037924650000000004 -0.56056275 0.1116093375c-0.17772187500000003 0.07368468750000001 -0.33914925 0.18167568750000002 -0.47509650000000003 0.31780665l-0.516232125 0.5169270375 3.6250470000000004 3.623593275 0.516232125 -0.5161921875000001Z" stroke-width="0.83"></path>
</svg>